<svg xmlns="http://www.w3.org/2000/svg" xmlns:xlink="http://www.w3.org/1999/xlink" width="200" zoomAndPan="magnify" viewBox="0 0 150 149.999998" height="200" preserveAspectRatio="xMidYMid meet" version="1.0"><defs><clipPath id="31fde7dd72"><path d="M 3 4.757812 L 147.882812 4.757812 L 147.882812 150 L 3 150 Z M 3 4.757812 " clip-rule="nonzero"/></clipPath></defs><g clip-path="url(#31fde7dd72)"><path fill="#000000" d="M 89.433594 65.96875 C 91.289062 75.171875 87.203125 89.953125 81.230469 102.378906 C 65.835938 134.40625 101.4375 150.257812 124.398438 130.253906 C 139.039062 117.507812 147.882812 98.402344 147.882812 77.4375 C 147.882812 49.214844 131.472656 24.851562 107.699219 13.355469 C 123.296875 25.984375 132.691406 41.839844 131.90625 63.007812 C 127.964844 58.824219 123.035156 56.007812 116.976562 54.761719 C 134.777344 75.753906 130.835938 99.648438 120.773438 105.195312 C 112.367188 109.839844 102.308594 104.351562 104.714844 88.324219 C 109.554688 90.707031 112.308594 95.003906 113.933594 100.316406 C 119.671875 82.054688 115.410156 68.726562 101.523438 60.160156 C 106.480469 59.464844 110.917969 60.886719 114.6875 64.894531 C 111.960938 51.652344 105.234375 41.546875 87.550781 40.039062 C 89.695312 37.542969 92.566406 35.886719 96.132812 35.074219 C 92.710938 33.535156 88.972656 32.546875 84.769531 32.34375 C 79.753906 34.957031 75.289062 38.179688 71.285156 41.898438 C 79.230469 29.671875 89.230469 18.726562 100.972656 8.882812 C 78.738281 18.609375 56.558594 33.039062 38.46875 50.347656 C 39.484375 65.589844 27.917969 73.515625 28.324219 61.582031 C 16.347656 78.890625 20.957031 91.113281 44.382812 86.640625 C 38.992188 83.882812 42.238281 80.050781 46.789062 80.804688 C 50.53125 81.414062 56.878906 81.734375 60.9375 78.367188 C 43.457031 75.519531 64.011719 65.242188 83.78125 69.191406 C 82.128906 63.992188 78.390625 60.074219 73.257812 57.894531 C 81.636719 55.3125 87.925781 58.652344 89.433594 65.96875 Z M 113.757812 129.992188 C 98.074219 129.644531 90.332031 115.996094 91.234375 98.429688 C 83.027344 121.832031 90.769531 136.320312 113.757812 129.992188 Z M 46.066406 55.835938 C 45.367188 57.925781 44.210938 59.753906 42.933594 61.496094 C 43.804688 58.96875 44.414062 56.328125 44.414062 53.511719 L 51.601562 47.589844 L 48.878906 54.90625 Z M 53.023438 101.277344 C 47.773438 98.867188 45.542969 95.527344 45.890625 91.375 C 57.574219 99.996094 77.144531 85.277344 65.113281 74.011719 C 79.433594 71.367188 82.332031 82.605469 76.796875 91.34375 C 51.6875 130.949219 73.894531 148.023438 93.234375 147.644531 C 87.464844 149.15625 81.375 149.96875 75.144531 149.96875 C 53.195312 149.96875 33.570312 140.007812 20.554688 124.328125 C 28.988281 128.597656 35.832031 127.234375 41.949219 123.285156 C -3.453125 111.902344 -8.117188 63.035156 25.015625 26.683594 C 2.636719 58.070312 11.042969 108.300781 53.023438 101.277344 Z M 73.199219 4.761719 C 70.359375 9.578125 67.835938 14.574219 66.328125 20.148438 L 71.867188 20.4375 C 64.300781 24.476562 57.199219 29.351562 50.5 35.015625 C 55.542969 24.183594 62.617188 13.964844 73.199219 4.761719 Z M 73.199219 4.761719 " fill-opacity="1" fill-rule="evenodd"/></g></svg>